<svg enable-background="new 328 0 1264 1080" viewBox="328 0 1264 1080" xmlns="http://www.w3.org/2000/svg"><path d="m1110.4 293-91.5-13.3-40.9-82.9c-7.4-14.8-28.5-15-35.9 0l-40.9 82.9-91.6 13.3c-16.5 2.3-23 22.6-11.2 34.2l66.2 64.5-15.6 91.1c-2.7 16.2 14.3 28.9 29.1 21.1l81.8-43 81.8 43c14.6 7.6 31.9-4.6 29.1-21.1l-15.6-91.1 66.2-64.5c12-11.6 5.5-31.9-11-34.2zm187.1-158v-101.2c0-18.6-15.2-33.8-33.8-33.8h-607.4c-18.6 0-33.8 15.2-33.8 33.8v101.2h-236.2c-18.6 0-33.8 15.2-33.8 33.8v128.2c0 127.2 144.1 264.1 336.7 300.8 57.8 122.1 143.6 186 220.2 205.5v175.5h-135c-46.6 0-84.4 37.8-84.4 84.4 0 9.3 7.6 16.9 16.9 16.9h506.3c9.3 0 16.9-7.6 16.9-16.9 0-46.6-37.8-84.4-84.4-84.4h-135v-175.5c76.6-19.6 162.4-83.3 220.2-205.5 192.2-36.5 336.7-173.4 336.7-300.8v-128.2c0-18.6-15.2-33.8-33.8-33.8zm-843.7 162v-60.8h168.8c0 82.7 4.4 160.7 25.9 246.4-116.3-39.8-194.7-124.2-194.7-185.6zm506.2 411.8c-111.8 0-236.3-165.4-236.3-455.6v-151.9h472.5v151.9c.1 296.3-128.2 455.6-236.2 455.6zm506.3-411.8c0 61.4-78.5 145.8-194.7 185.6 21.5-85.6 25.9-163.9 25.9-246.4h168.8z" fill="#ffc200"/></svg>