<?xml version="1.0" encoding="utf-8"?>
<!-- Generator: Adobe Illustrator 18.0.0, SVG Export Plug-In . SVG Version: 6.00 Build 0)  -->
<!DOCTYPE svg PUBLIC "-//W3C//DTD SVG 1.1//EN" "http://www.w3.org/Graphics/SVG/1.1/DTD/svg11.dtd">
<svg version="1.1" id="Layer_1" xmlns="http://www.w3.org/2000/svg" xmlns:xlink="http://www.w3.org/1999/xlink" x="0px" y="0px"
	 viewBox="0 0 100 100" enable-background="new 0 0 100 100" xml:space="preserve">
<g>
	<path fill="#F45E22" d="M80.1,4.9c3.6,0.2,6.6,1.5,9.3,3.7c2.9,2.5,4.9,5.6,5.5,9.5c0.5,3.9-0.5,7.3-3.1,10.1
		c-2.1,2.3-4.5,4.4-6.8,6.5c-2,1.9-4.1,3.8-6.2,5.6c-4.2,3.8-8.3,7.6-12.5,11.5c-2.7,2.5-5.4,4.9-8,7.4c-1,0.9-2,1.8-3,2.8
		c-0.4,0.4-0.7,0.2-1-0.1c-2.7-2.7-5.5-5.5-8.2-8.2c-2.6-2.6-5.3-5.3-8-7.9c-0.5-0.5-0.5-0.8,0-1.3c4.3-4.7,8.6-9.4,13-14.1
		c2.5-2.8,5.1-5.5,7.6-8.2c3.6-3.9,7.1-7.8,10.7-11.7c1.9-2.1,3.9-3.9,6.7-4.7C77.4,5.4,78.8,5.2,80.1,4.9z"/>
	<path fill="#F45E22" d="M5.8,90.4c-0.8-0.4-1-0.9-0.7-1.7c3.3-10,6.7-19.9,10-29.9c0.7-2.1,2-3.4,4-4.1c4.6-1.8,9.2-3.6,13.8-5.4
		c0.5-0.2,0.9-0.2,1.3,0.3c5.4,5.5,10.9,10.9,16.4,16.4c0.4,0.4,0.5,0.7,0.3,1.2c-1.9,4.7-3.7,9.5-5.6,14.2
		c-0.7,1.9-2.2,3.1-4.1,3.7c-9.2,3-18.3,6.1-27.5,9.1c-0.8,0.3-1.5,0.5-2.3,0.8s-1.3,0.1-1.7-0.6c0.2-0.2,0.3-0.4,0.5-0.6l15.2-15.2
		c0.3-0.3,0.6-0.6,1.2-0.5c2.1,0.4,3.9-0.4,5.2-2.1c1.3-1.7,1.5-3.6,0.6-5.6c-1-2.4-3.6-3.7-6-3.3c-2.7,0.5-4.5,2.7-4.6,5.4v0.1
		c0.5,1.2-0.2,1.8-1,2.5c-4.8,4.8-9.7,9.6-14.5,14.5C6.2,90,6,90.2,5.8,90.4z"/>
</g>
</svg>
