<svg enable-background="new 0 0 100 100" viewBox="0 0 100 100" xmlns="http://www.w3.org/2000/svg"><g fill="#343688"><path d="m80.1 4.9c3.6.2 6.6 1.5 9.3 3.7 2.9 2.5 4.9 5.6 5.5 9.5.5 3.9-.5 7.3-3.1 10.1-2.1 2.3-4.5 4.4-6.8 6.5-2 1.9-4.1 3.8-6.2 5.6-4.2 3.8-8.3 7.6-12.5 11.5-2.7 2.5-5.4 4.9-8 7.4-1 .9-2 1.8-3 2.8-.4.4-.7.2-1-.1-2.7-2.7-5.5-5.5-8.2-8.2-2.6-2.6-5.3-5.3-8-7.9-.5-.5-.5-.8 0-1.3 4.3-4.7 8.6-9.4 13-14.1 2.5-2.8 5.1-5.5 7.6-8.2 3.6-3.9 7.1-7.8 10.7-11.7 1.9-2.1 3.9-3.9 6.7-4.7 1.3-.4 2.7-.6 4-.9z"/><path d="m5.8 90.4c-.8-.4-1-.9-.7-1.7 3.3-10 6.7-19.9 10-29.9.7-2.1 2-3.4 4-4.1 4.6-1.8 9.2-3.6 13.8-5.4.5-.2.9-.2 1.3.3 5.4 5.5 10.9 10.9 16.4 16.4.4.4.5.7.3 1.2-1.9 4.7-3.7 9.5-5.6 14.2-.7 1.9-2.2 3.1-4.1 3.7-9.2 3-18.3 6.1-27.5 9.1-.8.3-1.5.5-2.3.8s-1.3.1-1.7-.6c.2-.2.3-.4.5-.6l15.2-15.2c.3-.3.6-.6 1.2-.5 2.1.4 3.9-.4 5.2-2.1s1.5-3.6.6-5.6c-1-2.4-3.6-3.7-6-3.3-2.7.5-4.5 2.7-4.6 5.4v.1c.5 1.2-.2 1.8-1 2.5-4.8 4.8-9.7 9.6-14.5 14.5-.1.4-.3.6-.5.8z"/></g></svg>