<?xml version="1.0" encoding="utf-8"?>
<!-- Generator: Adobe Illustrator 18.0.0, SVG Export Plug-In . SVG Version: 6.00 Build 0)  -->
<!DOCTYPE svg PUBLIC "-//W3C//DTD SVG 1.1//EN" "http://www.w3.org/Graphics/SVG/1.1/DTD/svg11.dtd">
<svg version="1.1" id="Layer_1" xmlns="http://www.w3.org/2000/svg" xmlns:xlink="http://www.w3.org/1999/xlink" x="0px" y="0px"
	 viewBox="0 0 100 100" enable-background="new 0 0 100 100" xml:space="preserve">
<path fill="#FCC00C" d="M72.4,30.4h4c2.4,0,4.7-0.1,7.1,0.6c6,1.6,11,7.6,11.7,13.8c0.4,3.7-0.4,7.1-2.1,10.4
	c-0.2,0.4-0.3,0.8-0.2,1.2c0.6,3.6,0.1,7-1.4,10.3c-0.2,0.5-0.3,1.2-0.3,1.7c0.1,2.9-0.3,5.6-1.4,8.2c-0.3,0.6-0.5,1.3-0.9,1.8
	c-1,1.3-1,2.7-1.2,4.2c-1,7.6-5.4,12.3-12.8,14.2c-2.3,0.6-4.7,0.8-7,1c-2.8,0.2-5.7,0.1-8.5,0c-6.6-0.3-12.9-1.7-19-4.2
	c-3-1.2-5.9-2.6-9.1-3.1c-0.2,0-0.3-0.1-0.5-0.1c-1.4-0.2-1.4-0.2-2,1.1c-1.1,2.1-2.9,3.2-5.2,3.3c-4,0.1-8,0.1-12.1,0
	c-3.5-0.1-6-2.7-6-6.2c0-14.7,0.1-29.4,0-44.1c0-3.5,2.4-6.7,6.7-6.7h16.7c0.8,0,1.4-0.2,1.9-0.8c2.3-2.9,4.6-5.7,6.9-8.6
	c1.7-2,3.4-4,5-6.1c0.5-0.6,0.9-1.3,1.1-2.1c0.7-2.5,1.3-5.1,2-7.6c0.7-2.6,1.7-5.1,3.4-7.3s3.9-3.3,6.6-3.5
	c4.3-0.2,8.3,0.6,11.8,3.2c2.8,2,4.5,4.8,5.4,8.1c1.5,5.5,1.6,11-0.3,16.4C72.5,29.9,72.5,30.1,72.4,30.4L72.4,30.4z M82.1,53.5
	c1.5-0.7,2.2-1.3,3-2.8c0.2-0.4,0.4-0.9,0.6-1.4c1.1-3,0.4-6-1.9-8.1c-1.5-1.4-3.2-1.9-5.2-1.9c-5.7,0-11.5,0-17.2,0
	c-1.9,0-1.8,0-1.6-1.9c0.3-2.6,1.4-4.9,2.6-7.1c2.1-3.9,2.9-8.1,2.3-12.5c-0.4-3.4-2.2-5.7-5.5-6.4s-3.7-0.7-4.8,2.8
	c-0.7,2-1,4.1-1.4,6.2c-0.6,2.7-1.4,5.3-3.2,7.5c-2.4,3-4.8,5.9-7.2,8.9c-2.1,2.6-4,5.4-6.6,7.7c-1.6,1.5-3.4,2.7-5.8,2.5
	c-0.8-0.1-1,0.3-1,1v32.7c0,1,0.1,1,1.1,1.2c1.8,0.2,3.6,0.3,5.2,0.8c4.1,1.2,8.1,2.5,12.1,3.8c4.6,1.5,9.3,2.4,14.1,2.3
	c2.5-0.1,4.9,0,7.4,0c0.8,0,1.6-0.1,2.3-0.2c3-0.5,5.4-2,6.6-5c0.7-1.9,0.8-4,0.5-6c-0.1-0.6-0.1-1,0.5-1.4c2.7-2,3.8-6.5,2.4-9.5
	c-0.3-0.6-0.2-1,0.2-1.5c0.7-0.9,1.4-1.8,1.8-2.8C84.5,59.2,84.1,56.3,82.1,53.5z M17.3,78.4c-2.5,0-4.5,1.9-4.5,4.4
	c0,2.4,2,4.5,4.5,4.5c2.4,0,4.4-2,4.4-4.4C21.7,80.4,19.8,78.5,17.3,78.4z"/>
</svg>
