<svg enable-background="new 0 0 100 100" viewBox="0 0 100 100" xmlns="http://www.w3.org/2000/svg"><path d="m72.4 30.4h4c2.4 0 4.7-.1 7.1.6 6 1.6 11 7.6 11.7 13.8.4 3.7-.4 7.1-2.1 10.4-.2.4-.3.8-.2 1.2.6 3.6.1 7-1.4 10.3-.2.5-.3 1.2-.3 1.7.1 2.9-.3 5.6-1.4 8.2-.3.6-.5 1.3-.9 1.8-1 1.3-1 2.7-1.2 4.2-1 7.6-5.4 12.3-12.8 14.2-2.3.6-4.7.8-7 1-2.8.2-5.7.1-8.5 0-6.6-.3-12.9-1.7-19-4.2-3-1.2-5.9-2.6-9.1-3.1-.2 0-.3-.1-.5-.1-1.4-.2-1.4-.2-2 1.1-1.1 2.1-2.9 3.2-5.2 3.3-4 .1-8 .1-12.1 0-3.5-.1-6-2.7-6-6.2 0-14.7.1-29.4 0-44.1 0-3.5 2.4-6.7 6.7-6.7h16.7c.8 0 1.4-.2 1.9-.8 2.3-2.9 4.6-5.7 6.9-8.6 1.7-2 3.4-4 5-6.1.5-.6.9-1.3 1.1-2.1.7-2.5 1.3-5.1 2-7.6.7-2.6 1.7-5.1 3.4-7.3s3.9-3.3 6.6-3.5c4.3-.2 8.3.6 11.8 3.2 2.8 2 4.5 4.8 5.4 8.1 1.5 5.5 1.6 11-.3 16.4-.2.4-.2.6-.3.9zm9.7 23.1c1.5-.7 2.2-1.3 3-2.8.2-.4.4-.9.6-1.4 1.1-3 .4-6-1.9-8.1-1.5-1.4-3.2-1.9-5.2-1.9-5.7 0-11.5 0-17.2 0-1.9 0-1.8 0-1.6-1.9.3-2.6 1.4-4.9 2.6-7.1 2.1-3.9 2.9-8.1 2.3-12.5-.4-3.4-2.2-5.7-5.5-6.4s-3.7-.7-4.8 2.8c-.7 2-1 4.1-1.4 6.2-.6 2.7-1.4 5.3-3.2 7.5-2.4 3-4.8 5.9-7.2 8.9-2.1 2.6-4 5.4-6.6 7.7-1.6 1.5-3.4 2.7-5.8 2.5-.8-.1-1 .3-1 1v32.7c0 1 .1 1 1.1 1.2 1.8.2 3.6.3 5.2.8 4.1 1.2 8.1 2.5 12.1 3.8 4.6 1.5 9.3 2.4 14.1 2.3 2.5-.1 4.9 0 7.4 0 .8 0 1.6-.1 2.3-.2 3-.5 5.4-2 6.6-5 .7-1.9.8-4 .5-6-.1-.6-.1-1 .5-1.4 2.7-2 3.8-6.5 2.4-9.5-.3-.6-.2-1 .2-1.5.7-.9 1.4-1.8 1.8-2.8 1.1-3.2.7-6.1-1.3-8.9zm-64.8 24.9c-2.5 0-4.5 1.9-4.5 4.4 0 2.4 2 4.5 4.5 4.5 2.4 0 4.4-2 4.4-4.4 0-2.5-1.9-4.4-4.4-4.5z" fill="#343688"/></svg>