<svg enable-background="new 0 0 100 100" viewBox="0 0 100 100" xmlns="http://www.w3.org/2000/svg"><g fill="#343688"><path d="m50.2 81.8c-12.3-.2-22.6-3.8-31.7-11.2-5.6-4.5-10-10-13.3-16.4-.9-1.7-.9-3.4 0-5.1 2.2-4.1 4.8-7.9 7.9-11.3 4.4-4.7 9.4-8.6 15.2-11.4 4.9-2.4 10.1-3.9 15.6-4.5 6.9-.8 13.7-.1 20.3 2 6.6 2 12.4 5.4 17.6 9.9 5 4.4 9.1 9.5 12.1 15.4.9 1.7.9 3.3 0 5-2.1 4.1-4.8 7.9-8 11.3-4.4 4.7-9.4 8.6-15.2 11.4-4.9 2.4-10.1 3.9-15.6 4.5-1.9.2-3.7.3-4.9.4zm21.7-30.1c.1-12.1-9.6-22.4-22.4-22.4-12.6 0-22.4 10.1-22.4 22.5 0 12.1 9.6 22.4 22.4 22.4 12.7-.1 22.5-10.3 22.4-22.5z"/><path d="m35.2 47.8c3.3 2 6.6 1.9 9.5-.8 2.9-2.8 3-6.2 1-9.6 4.2-1.6 11.5-.6 16 5.4 4.3 5.8 3.9 14.4-1.7 19.7-5.3 5.1-13.7 5.8-20 .7-5.3-4.3-6.3-11.4-4.8-15.4z"/></g></svg>