<?xml version="1.0" encoding="utf-8"?>
<!-- Generator: Adobe Illustrator 18.0.0, SVG Export Plug-In . SVG Version: 6.00 Build 0)  -->
<!DOCTYPE svg PUBLIC "-//W3C//DTD SVG 1.1//EN" "http://www.w3.org/Graphics/SVG/1.1/DTD/svg11.dtd">
<svg version="1.1" id="Layer_1" xmlns="http://www.w3.org/2000/svg" xmlns:xlink="http://www.w3.org/1999/xlink" x="0px" y="0px"
	 viewBox="0 0 100 100" enable-background="new 0 0 100 100" xml:space="preserve">
<g>
	<path fill="#49BFE2" d="M50.2,81.8C37.9,81.6,27.6,78,18.5,70.6c-5.6-4.5-10-10-13.3-16.4c-0.9-1.7-0.9-3.4,0-5.1
		c2.2-4.1,4.8-7.9,7.9-11.3c4.4-4.7,9.4-8.6,15.2-11.4c4.9-2.4,10.1-3.9,15.6-4.5c6.9-0.8,13.7-0.1,20.3,2c6.6,2,12.4,5.4,17.6,9.9
		c5,4.4,9.1,9.5,12.1,15.4c0.9,1.7,0.9,3.3,0,5c-2.1,4.1-4.8,7.9-8,11.3c-4.4,4.7-9.4,8.6-15.2,11.4c-4.9,2.4-10.1,3.9-15.6,4.5
		C53.2,81.6,51.4,81.7,50.2,81.8z M71.9,51.7c0.1-12.1-9.6-22.4-22.4-22.4c-12.6,0-22.4,10.1-22.4,22.5c0,12.1,9.6,22.4,22.4,22.4
		C62.2,74.1,72,63.9,71.9,51.7z"/>
	<path fill="#49BFE2" d="M35.2,47.8c3.3,2,6.6,1.9,9.5-0.8c2.9-2.8,3-6.2,1-9.6c4.2-1.6,11.5-0.6,16,5.4c4.3,5.8,3.9,14.4-1.7,19.7
		c-5.3,5.1-13.7,5.8-20,0.7C34.7,58.9,33.7,51.8,35.2,47.8z"/>
</g>
</svg>
